<?xml version="1.0" encoding="UTF-8" standalone="no"?>
<!DOCTYPE svg PUBLIC "-//W3C//DTD SVG 20010904//EN"
              "http://www.w3.org/TR/2001/REC-SVG-20010904/DTD/svg10.dtd">

<svg xmlns="http://www.w3.org/2000/svg"
     width="144.51mm" height="144.51mm"
     viewBox="0 0 512 512">
  <path id="Selection"
        fill="none" stroke="black" stroke-width="1"
        d="M 208.00,224.00
           C 208.00,224.00 208.00,52.00 208.00,52.00
             208.00,52.00 208.00,23.00 208.00,23.00
             208.00,18.52 207.45,11.95 209.45,8.00
             213.14,0.72 218.77,0.01 226.00,0.00
             226.00,0.00 287.00,0.00 287.00,0.00
             299.72,0.07 303.98,5.81 304.00,18.00
             304.00,18.00 304.00,224.00 304.00,224.00
             304.00,224.00 366.00,224.00 366.00,224.00
             369.47,224.01 372.79,223.81 375.99,225.45
             384.26,229.70 386.15,241.34 381.78,249.00
             381.78,249.00 351.15,285.00 351.15,285.00
             351.15,285.00 291.72,353.00 291.72,353.00
             291.72,353.00 275.05,372.00 275.05,372.00
             268.77,379.07 266.27,383.99 256.00,383.99
             245.73,383.99 243.23,379.07 236.95,372.00
             236.95,372.00 220.28,353.00 220.28,353.00
             220.28,353.00 160.85,285.00 160.85,285.00
             160.85,285.00 130.22,249.00 130.22,249.00
             125.85,241.34 127.74,229.70 136.01,225.45
             139.21,223.81 142.53,224.01 146.00,224.00
             146.00,224.00 208.00,224.00 208.00,224.00 Z
           M 16.00,352.00
           C 16.00,352.00 80.00,352.00 80.00,352.00
             80.00,352.00 80.00,448.00 80.00,448.00
             80.00,448.00 432.00,448.00 432.00,448.00
             432.00,448.00 432.00,352.00 432.00,352.00
             432.00,352.00 496.00,352.00 496.00,352.00
             496.00,352.00 496.00,480.00 496.00,480.00
             495.97,499.28 483.28,511.97 464.00,512.00
             464.00,512.00 223.00,512.00 223.00,512.00
             223.00,512.00 46.00,512.00 46.00,512.00
             27.78,511.78 16.03,497.59 16.00,480.00
             16.00,480.00 16.00,352.00 16.00,352.00 Z" />
</svg>
