<?xml version="1.0" encoding="UTF-8" standalone="no"?>
<!DOCTYPE svg PUBLIC "-//W3C//DTD SVG 20010904//EN"
              "http://www.w3.org/TR/2001/REC-SVG-20010904/DTD/svg10.dtd">

<svg xmlns="http://www.w3.org/2000/svg"
     width="135.45mm" height="135.45mm"
     viewBox="0 0 512 512">
  <path id="Selection"
        fill="none" stroke="black" stroke-width="1"
        d="M 72.00,107.00
           C 72.00,107.00 72.00,145.00 72.00,145.00
             72.00,152.49 72.92,159.49 68.35,166.00
             58.74,179.70 37.26,179.70 27.65,166.00
             24.10,160.95 24.01,156.86 24.00,151.00
             24.00,151.00 24.00,55.00 24.00,55.00
             24.00,44.52 21.07,28.71 34.00,24.65
             36.41,23.89 39.47,24.00 42.00,24.00
             42.00,24.00 151.00,24.00 151.00,24.00
             156.86,24.01 160.95,24.10 166.00,27.65
             179.70,37.26 179.70,58.74 166.00,68.35
             160.95,71.90 156.86,71.99 151.00,72.00
             151.00,72.00 107.00,72.00 107.00,72.00
             107.00,72.00 199.00,164.00 199.00,164.00
             204.51,169.51 223.74,187.88 226.78,193.00
             228.75,196.32 229.79,200.16 229.96,204.00
             230.65,219.83 219.83,230.65 204.00,229.96
             200.16,229.79 196.32,228.75 193.00,226.78
             187.88,223.74 169.51,204.51 164.00,199.00
             164.00,199.00 72.00,107.00 72.00,107.00 Z
           M 405.00,72.00
           C 405.00,72.00 359.00,72.00 359.00,72.00
             343.85,71.81 335.85,61.53 336.00,47.00
             336.06,41.98 336.67,38.23 339.65,34.00
             345.42,25.78 351.56,24.01 361.00,24.00
             361.00,24.00 457.00,24.00 457.00,24.00
             467.48,24.00 483.29,21.07 487.35,34.00
             488.11,36.41 488.00,39.47 488.00,42.00
             488.00,42.00 488.00,151.00 488.00,151.00
             487.99,156.86 487.90,160.95 484.35,166.00
             474.74,179.70 453.26,179.70 443.65,166.00
             440.10,160.95 440.01,156.86 440.00,151.00
             440.00,151.00 440.00,107.00 440.00,107.00
             440.00,107.00 348.00,199.00 348.00,199.00
             342.49,204.51 324.12,223.74 319.00,226.78
             315.68,228.75 311.84,229.79 308.00,229.96
             291.98,230.66 281.34,220.02 282.04,204.00
             282.21,200.16 283.25,196.32 285.22,193.00
             288.26,187.88 307.49,169.51 313.00,164.00
             313.00,164.00 405.00,72.00 405.00,72.00 Z
           M 72.00,405.00
           C 72.00,405.00 174.00,303.00 174.00,303.00
             177.97,299.03 187.94,288.51 192.00,285.99
             200.65,280.64 214.64,282.11 221.96,289.10
             230.00,296.79 231.95,310.40 226.01,320.00
             223.49,324.06 212.97,334.03 209.00,338.00
             209.00,338.00 107.00,440.00 107.00,440.00
             107.00,440.00 153.00,440.00 153.00,440.00
             168.15,440.19 176.15,450.47 176.00,465.00
             175.94,470.02 175.33,473.77 172.35,478.00
             166.58,486.22 160.44,487.99 151.00,488.00
             151.00,488.00 55.00,488.00 55.00,488.00
             44.52,488.00 28.71,490.93 24.65,478.00
             23.89,475.59 24.00,472.53 24.00,470.00
             24.00,470.00 24.00,361.00 24.00,361.00
             24.01,355.14 24.10,351.05 27.65,346.00
             37.26,332.30 58.74,332.30 68.35,346.00
             71.90,351.05 71.99,355.14 72.00,361.00
             72.00,361.00 72.00,405.00 72.00,405.00 Z
           M 405.00,440.00
           C 405.00,440.00 314.00,349.00 314.00,349.00
             308.57,343.57 289.16,325.01 286.22,320.00
             284.44,316.95 283.31,312.52 283.09,309.00
             282.18,294.15 294.15,282.18 309.00,283.09
             312.52,283.31 316.95,284.44 320.00,286.22
             325.01,289.16 343.57,308.57 349.00,314.00
             349.00,314.00 440.00,405.00 440.00,405.00
             440.00,405.00 440.00,367.00 440.00,367.00
             440.00,359.51 439.08,352.51 443.65,346.00
             453.26,332.30 474.74,332.30 484.35,346.00
             487.90,351.05 487.99,355.14 488.00,361.00
             488.00,361.00 488.00,457.00 488.00,457.00
             488.00,467.48 490.93,483.29 478.00,487.35
             475.59,488.11 472.53,488.00 470.00,488.00
             470.00,488.00 361.00,488.00 361.00,488.00
             355.14,487.99 351.05,487.90 346.00,484.35
             332.30,474.74 332.30,453.26 346.00,443.65
             351.05,440.10 355.14,440.01 361.00,440.00
             361.00,440.00 405.00,440.00 405.00,440.00 Z" />
</svg>
