<?xml version="1.0" encoding="UTF-8" standalone="no"?>
<!DOCTYPE svg PUBLIC "-//W3C//DTD SVG 20010904//EN"
              "http://www.w3.org/TR/2001/REC-SVG-20010904/DTD/svg10.dtd">

<svg xmlns="http://www.w3.org/2000/svg"
     width="135.45mm" height="135.45mm"
     viewBox="0 0 512 512">
  <path id="Selection"
        fill="none" stroke="black" stroke-width="1"
        d="M 374.00,106.00
           C 367.52,101.36 351.62,84.62 345.00,78.00
             338.82,71.82 323.87,58.47 321.13,51.00
             319.96,47.80 319.93,44.36 320.01,41.00
             320.33,28.18 329.77,21.15 342.00,21.00
             342.00,21.00 467.00,21.00 467.00,21.00
             483.14,21.03 490.97,28.86 491.00,45.00
             491.00,45.00 491.00,170.00 491.00,170.00
             490.85,182.23 483.82,191.67 471.00,191.99
             456.24,192.34 451.79,184.79 442.00,175.00
             442.00,175.00 405.00,138.00 405.00,138.00
             405.00,138.00 364.00,180.00 364.00,180.00
             364.00,180.00 284.00,260.00 284.00,260.00
             284.00,260.00 258.00,286.00 258.00,286.00
             251.52,292.47 245.75,298.53 236.00,298.96
             222.01,299.57 212.43,289.99 213.04,276.00
             213.49,265.77 220.24,259.76 227.00,253.00
             227.00,253.00 254.00,226.00 254.00,226.00
             254.00,226.00 374.00,106.00 374.00,106.00 Z
           M 74.00,64.15
           C 74.00,64.15 136.00,64.15 136.00,64.15
             136.00,64.15 255.00,64.15 255.00,64.15
             261.19,64.01 264.91,64.23 269.96,68.39
             280.80,77.31 280.44,94.96 268.98,103.20
             263.79,106.94 260.07,106.99 254.00,107.00
             254.00,107.00 91.00,107.00 91.00,107.00
             70.81,107.03 64.03,118.16 64.00,137.00
             64.00,137.00 64.00,376.00 64.00,376.00
             64.00,376.00 64.00,418.00 64.00,418.00
             64.06,429.60 66.14,440.46 78.00,445.64
             82.60,447.64 89.02,447.99 94.00,448.00
             94.00,448.00 333.00,448.00 333.00,448.00
             333.00,448.00 369.00,448.00 369.00,448.00
             375.44,448.00 385.07,448.28 391.00,445.78
             401.73,441.24 404.98,431.68 405.00,421.00
             405.00,421.00 405.00,258.00 405.00,258.00
             405.01,251.93 405.06,248.21 408.80,243.02
             416.64,232.12 433.76,231.03 442.79,241.04
             447.60,246.37 447.99,250.24 448.00,257.00
             448.00,257.00 448.00,430.00 448.00,430.00
             447.95,464.02 418.47,490.95 385.00,491.00
             385.00,491.00 84.00,491.00 84.00,491.00
             49.43,490.95 21.05,462.55 21.00,428.00
             21.00,428.00 21.00,232.00 21.00,232.00
             21.00,232.00 21.00,124.00 21.00,124.00
             21.35,94.06 45.41,69.79 74.00,64.15 Z" />
</svg>
